{"title":"The Transporter 4 Refueled 2015 Movies HDCam XviD AAC New â˜»rDXâ˜»","uid":12382325,"size":740170969,"categoryP":"video","categoryS":"movies","magnet":"?xt=urn:btih:c4c2c09bd63c57f1c402ea6d549700a0aaadcccd&amp;dn=The+Transporter+4+Refueled+2015+Movies+HDCam+XviD+AAC+New+%E2%98%BBrDX%E2%98%BB&amp;tr=udp%3A%2F%2Ftracker.openbittorrent.com%3A80&amp;tr=udp%3A%2F%2Fopen.demonii.com%3A1337&amp;tr=udp%3A%2F%2Ftracker.coppersurfer.tk%3A6969&amp;tr=udp%3A%2F%2Fexodus.desync.com%3A6969","seeders":1,"leechers":0,"uploader":"basicssom","files":2,"time":1441779909,"description":"----------------------------------------------------------------\nThe Transporter 4 Refueled 2015 English Movies HDCam XviD AAC New Source with Sample ~ â˜»rDXâ˜»\n\nSCREEN SHOTS &amp; POSTER:\n &lt;a href=&quot;\nhttp://doctorhosts.com/2015/8/Transporter4/11.html&quot; rel=&quot;nofollow&quot; target=&quot;_NEW&quot;&gt;\nhttp://doctorhosts.com/2015/8/Transporter4/11.html&lt;/a&gt; &lt;a href=&quot;\nhttp://doctorhosts.com/2015/8/Transporter4/1.html&quot; rel=&quot;nofollow&quot; target=&quot;_NEW&quot;&gt;\nhttp://doctorhosts.com/2015/8/Transporter4/1.html&lt;/a&gt; &lt;a href=&quot;\nhttp://doctorhosts.com/2015/8/Transporter4/2.html&quot; rel=&quot;nofollow&quot; target=&quot;_NEW&quot;&gt;\nhttp://doctorhosts.com/2015/8/Transporter4/2.html&lt;/a&gt; &lt;a href=&quot;\nhttp://doctorhosts.com/2015/8/Transporter4/3.html&quot; rel=&quot;nofollow&quot; target=&quot;_NEW&quot;&gt;\nhttp://doctorhosts.com/2015/8/Transporter4/3.html&lt;/a&gt; &lt;a href=&quot;\nhttp://doctorhosts.com/2015/8/Transporter4/4.html&quot; rel=&quot;nofollow&quot; target=&quot;_NEW&quot;&gt;\nhttp://doctorhosts.com/2015/8/Transporter4/4.html&lt;/a&gt; &lt;a href=&quot;\nhttp://doctorhosts.com/2015/8/Transporter4/5.html&quot; rel=&quot;nofollow&quot; target=&quot;_NEW&quot;&gt;\nhttp://doctorhosts.com/2015/8/Transporter4/5.html&lt;/a&gt; &lt;a href=&quot;\nhttp://doctorhosts.com/2015/8/Transporter4/6.html&quot; rel=&quot;nofollow&quot; target=&quot;_NEW&quot;&gt;\nhttp://doctorhosts.com/2015/8/Transporter4/6.html&lt;/a&gt; &lt;a href=&quot;\nhttp://doctorhosts.com/2015/8/Transporter4/7.html&quot; rel=&quot;nofollow&quot; target=&quot;_NEW&quot;&gt;\nhttp://doctorhosts.com/2015/8/Transporter4/7.html&lt;/a&gt; &lt;a href=&quot;\nhttp://doctorhosts.com/2015/8/Transporter4/8.html&quot; rel=&quot;nofollow&quot; target=&quot;_NEW&quot;&gt;\nhttp://doctorhosts.com/2015/8/Transporter4/8.html&lt;/a&gt; &lt;a href=&quot;\nhttp://doctorhosts.com/2015/8/Transporter4/9.html&quot; rel=&quot;nofollow&quot; target=&quot;_NEW&quot;&gt;\nhttp://doctorhosts.com/2015/8/Transporter4/9.html&lt;/a&gt; &lt;a href=&quot;\nhttp://doctorhosts.com/2015/8/Transporter4/10.html&quot; rel=&quot;nofollow&quot; target=&quot;_NEW&quot;&gt;\nhttp://doctorhosts.com/2015/8/Transporter4/10.html&lt;/a&gt;\n\nFormat                                   : Matroska\nFormat version                           : Version 4 / Version 2\nFile size                                : 698 MiB\nDuration                                 : 1h 29mn\nOverall bit rate                         : 1 085 Kbps\nMovie name                               : The Transporter 4 Refueled 2015 English Movies HDCam XviD AAC New Source ~ rDX ~\n\nVideo\nID                                       : 1\nFormat                                   : MPEG-4 Visual\nCodec ID/Hint                            : DivX 5\nDuration                                 : 1h 29mn\nBit rate                                 : 903 Kbps\nWidth                                    : 640 pixels\nHeight                                   : 288 pixels\nDisplay aspect ratio                     : 2.222\nFrame rate mode                          : Constant\nFrame rate                               : 25.000 fps\nColor space                              : YUV\nChroma subsampling                       : 4:2:0\nBit depth                                : 8 bits\nScan type                                : Interlaced\nScan order                               : Top Field First\nCompression mode                         : Lossy\nBits/(Pixel*Frame)                       : 0.196\nStream size                              : 581 MiB (83%)\nTitle                                    : ~ rDX ~\nDefault                                  : Yes\nForced                                   : No\n\nAudio\nID                                       : 2\nFormat                                   : MPEG Audio\nFormat version                           : Version 1\nFormat profile                           : Layer 3\nMode                                     : Joint stereo\nMode extension                           : MS Stereo\nCodec ID                                 : A_MPEG/L3\nCodec ID/Hint                            : MP3\nDuration                                 : 1h 29mn\nBit rate mode                            : Constant\nBit rate                                 : 160 Kbps\nChannel(s)                               : 2 channels\nSampling rate                            : 44.1 KHz\nCompression mode                         : Lossy\nStream size                              : 103 MiB (15%)\nTitle                                    : ~ rDX ~\nDefault                                  : Yes\nForced                                   : No","torrent":{"xt":"urn:btih:c4c2c09bd63c57f1c402ea6d549700a0aaadcccd","amp;dn":"The+Transporter+4+Refueled+2015+Movies+HDCam+XviD+AAC+New+%E2%98%BBrDX%E2%98%BB","amp;tr":["udp%3A%2F%2Ftracker.openbittorrent.com%3A80","udp%3A%2F%2Fopen.demonii.com%3A1337","udp%3A%2F%2Ftracker.coppersurfer.tk%3A6969","udp%3A%2F%2Fexodus.desync.com%3A6969"],"infoHash":"c4c2c09bd63c57f1c402ea6d549700a0aaadcccd","infoHashBuffer":{"type":"Buffer","data":[196,194,192,155,214,60,87,241,196,2,234,109,84,151,0,160,170,173,204,205]},"announce":[],"urlList":[]}}